<svg aria-hidden="true" style="position: absolute; width: 0; height: 0; overflow: hidden;" version="1.1" xmlns="http://www.w3.org/2000/svg" xmlns:xlink="http://www.w3.org/1999/xlink">
<defs>
<symbol id="icon-teacher" viewBox="0 0 32 32">
<path fill="#ff7b52" style="fill: var(--color1, #ff7b52)" d="M31.467 0c-0 0-0 0-0 0h-30.933c-0.294-0-0.533 0.239-0.533 0.533 0 0 0 0 0 0v10.667h1.067v-10.133h29.867v11.733h-18.667v1.067h19.2c0.294 0 0.533-0.239 0.533-0.533 0-0 0-0 0-0v-12.8c0-0.294-0.239-0.533-0.533-0.533z"></path>
<path fill="#ff7b52" style="fill: var(--color1, #ff7b52)" d="M28.267 2.667h-10.667v1.067h10.667v-1.067z"></path>
<path fill="#ff7b52" style="fill: var(--color1, #ff7b52)" d="M29.867 5.867h-10.667v1.067h10.667v-1.067z"></path>
<path fill="#ff7b52" style="fill: var(--color1, #ff7b52)" d="M27.733 9.067h-10.667v1.067h10.667v-1.067z"></path>
<path fill="#ff7b52" style="fill: var(--color1, #ff7b52)" d="M17.024 4.598c-0.365-0.878-1.373-1.293-2.25-0.928-0.015 0.006-0.030 0.013-0.045 0.019l-4.325 2.243c0.171-0.353 0.26-0.741 0.262-1.133 0-1.473-1.194-2.667-2.667-2.667s-2.667 1.194-2.667 2.667c0.002 0.579 0.194 1.141 0.547 1.6h-0.022c-1.514 0.010-2.865 0.951-3.4 2.368l-1.424 4.907c-0.339 0.88 0.1 1.869 0.98 2.208 0.401 0.155 0.846 0.152 1.246-0.007 0.459-0.185 0.817-0.559 0.981-1.026l0.558-1.775v7.719c-0.459-0.353-1.021-0.545-1.6-0.547-1.471-0.002-2.664 1.188-2.667 2.659-0.001 0.72 0.29 1.41 0.806 1.912-0.819 0.419-1.336 1.26-1.339 2.179v4.469c-0 0.294 0.239 0.533 0.533 0.533 0 0 0 0 0 0h5.333c0.294 0 0.533-0.239 0.533-0.533 0-0 0-0 0-0v-4.469c-0.003-0.756-0.354-1.468-0.952-1.931h4.037c-0.598 0.462-0.949 1.175-0.952 1.931v4.469c-0 0.294 0.239 0.533 0.533 0.533 0 0 0 0 0 0h5.333c0.294 0 0.533-0.239 0.533-0.533 0-0 0-0 0-0v-4.469c-0.003-0.92-0.52-1.761-1.339-2.179 1.053-1.028 1.073-2.715 0.046-3.768-0.633-0.648-1.552-0.931-2.44-0.749v-10.91l4.896-2.542c0.878-0.365 1.293-1.373 0.928-2.25zM8 3.2c0.884 0 1.6 0.716 1.6 1.6s-0.716 1.6-1.6 1.6c-0.883-0.001-1.599-0.717-1.6-1.6s0.716-1.6 1.6-1.6zM3.2 21.313c0.884 0 1.6 0.716 1.6 1.6s-0.716 1.6-1.6 1.6-1.6-0.716-1.6-1.6c0.001-0.883 0.717-1.599 1.6-1.6zM5.333 30.933h-4.267v-3.936c0.001-0.771 0.626-1.396 1.398-1.397h1.471c0.771 0.001 1.397 0.626 1.398 1.397v3.936zM13.867 26.997v3.936h-4.267v-3.936c0.001-0.771 0.626-1.396 1.398-1.397h1.471c0.771 0.001 1.397 0.626 1.398 1.397zM11.733 21.313c0.883 0.001 1.599 0.717 1.6 1.6s-0.716 1.6-1.6 1.6c-0.884 0-1.6-0.716-1.6-1.6s0.716-1.6 1.6-1.6zM16.048 5.488c-0.071 0.183-0.218 0.327-0.403 0.395l-5.225 2.71c-0.177 0.092-0.288 0.274-0.288 0.473v11.727c-0.999 0.739-1.345 2.076-0.83 3.206h-0.77v-9.067h-1.067v9.067h-1.837c0.152-0.335 0.232-0.699 0.235-1.067h0.002v-13.333c-0-0.295-0.239-0.533-0.533-0.533-0.233 0-0.439 0.151-0.509 0.373l-1.593 5.068c-0.121 0.333-0.488 0.505-0.821 0.384-0.023-0.008-0.046-0.018-0.068-0.029-0.308-0.159-0.438-0.53-0.298-0.847l1.424-4.907c0.384-0.986 1.332-1.637 2.39-1.642h3.776c0.085 0 0.17-0.020 0.246-0.060l5.301-2.752c0.318-0.133 0.685 0.003 0.839 0.311 0.082 0.162 0.092 0.352 0.028 0.522z"></path>
<path fill="#ff7b52" style="fill: var(--color1, #ff7b52)" d="M22.128 24.818c1.055-1.028 1.077-2.716 0.049-3.771s-2.716-1.077-3.771-0.049c-1.055 1.028-1.077 2.716-0.049 3.771 0.016 0.017 0.033 0.033 0.049 0.049-0.819 0.419-1.336 1.26-1.339 2.179v4.469c-0 0.294 0.239 0.533 0.533 0.533 0 0 0 0 0 0h5.333c0.294 0 0.533-0.239 0.533-0.533 0-0 0-0 0-0v-4.469c-0.003-0.92-0.52-1.761-1.339-2.179zM20.267 21.314c0.884 0 1.6 0.716 1.6 1.6s-0.716 1.6-1.6 1.6c-0.884 0-1.6-0.716-1.6-1.6s0.717-1.599 1.6-1.6zM22.4 30.933h-4.267v-3.936c0.001-0.771 0.626-1.396 1.398-1.397h1.471c0.771 0.001 1.397 0.626 1.398 1.397v3.936z"></path>
<path fill="#ff7b52" style="fill: var(--color1, #ff7b52)" d="M30.661 24.818c1.055-1.028 1.077-2.716 0.049-3.771s-2.716-1.077-3.771-0.049c-1.055 1.028-1.077 2.716-0.049 3.771 0.016 0.017 0.033 0.033 0.049 0.049-0.819 0.419-1.336 1.26-1.339 2.179v4.469c-0 0.294 0.239 0.533 0.533 0.533 0 0 0 0 0 0h5.333c0.294 0 0.533-0.239 0.533-0.533 0-0 0-0 0-0v-4.469c-0.003-0.92-0.52-1.761-1.339-2.179zM28.8 21.314c0.884 0 1.6 0.716 1.6 1.6s-0.716 1.6-1.6 1.6c-0.884 0-1.6-0.716-1.6-1.6s0.717-1.599 1.6-1.6zM30.933 30.933h-4.267v-3.936c0.001-0.771 0.626-1.396 1.398-1.397h1.471c0.771 0.001 1.397 0.626 1.398 1.397v3.936z"></path>
</symbol>
<symbol id="icon-Idea" viewBox="0 0 32 32">
<path fill="#2dc071" style="fill: var(--color2, #2dc071)" d="M29.187 16.775c-0.096-0.502-0.536-0.865-1.047-0.866h-1.030l-0.076-0.454c-0.076-0.456-0.435-0.812-0.891-0.884-0.101-0.016-0.204-0.027-0.305-0.041 0.175-0.815 0.030-1.667-0.405-2.378 0.23-0.596 0.187-1.263-0.117-1.824s-0.839-0.962-1.464-1.095c-0.399-2.138-2.259-3.691-4.434-3.705-0.053 0-0.101 0.007-0.151 0.009-0.347-0.546-0.92-0.908-1.562-0.988s-1.286 0.131-1.757 0.575c-0.593-0.385-1.284-0.591-1.991-0.591-1.139 0.005-2.213 0.533-2.911 1.434-0.775-0.226-1.611-0.087-2.272 0.377s-1.074 1.204-1.124 2.010c-0.814 0.342-1.344 1.139-1.345 2.022 0.002 0.153 0.020 0.306 0.053 0.455-0.72 1.085-0.908 2.439-0.511 3.68-0.143 0.020-0.289 0.037-0.427 0.058-0.459 0.069-0.821 0.426-0.898 0.883l-0.076 0.455h-1.033c-0.51 0-0.949 0.362-1.046 0.863l-2.335 11.99c-0.091 0.47 0.032 0.955 0.337 1.324s0.758 0.582 1.237 0.581h11.122c0.442 0.729 1.783 1.067 3.049 1.067 1.252 0 2.581-0.33 3.035-1.067h11.135c0.478 0.001 0.932-0.212 1.236-0.581s0.428-0.854 0.337-1.324l-2.335-11.987zM7.919 11.342c-0.433-0.26-0.64-0.777-0.506-1.264s0.576-0.825 1.082-0.827c0.354-0.001 0.686 0.167 0.895 0.452 0.114 0.153 0.3 0.234 0.489 0.212s0.353-0.143 0.428-0.318c0.076-0.175 0.052-0.377-0.061-0.53-0.362-0.484-0.911-0.794-1.513-0.853 0.159-0.747 0.818-1.282 1.581-1.284 0.065 0.003 0.13 0.010 0.194 0.021-0.043 0.109-0.080 0.221-0.112 0.334-0.066 0.282 0.105 0.566 0.386 0.638s0.568-0.093 0.647-0.372c0.061-0.234 0.154-0.459 0.277-0.668 0.473-0.793 1.327-1.28 2.25-1.284 0.502 0.002 0.993 0.15 1.413 0.427-0.080 0.225-0.122 0.461-0.125 0.699 0 0.295 0.239 0.533 0.533 0.533s0.533-0.239 0.533-0.533c0-0.62 0.502-1.122 1.122-1.122s1.122 0.502 1.122 1.122c0 0.295 0.239 0.533 0.533 0.533s0.533-0.239 0.533-0.533c0-0.041-0.010-0.080-0.012-0.121 1.527 0.094 2.811 1.18 3.158 2.67-0.249 0.072-0.483 0.189-0.69 0.344-0.152 0.114-0.232 0.301-0.209 0.49s0.145 0.352 0.32 0.427c0.175 0.075 0.377 0.051 0.529-0.064 0.426-0.316 1.015-0.29 1.413 0.060s0.496 0.932 0.236 1.394c-0.116 0.204-0.293 0.367-0.505 0.467-0.223 0.108-0.342 0.355-0.288 0.597s0.268 0.414 0.515 0.417c0.078 0 0.155-0.017 0.226-0.051 0.141-0.069 0.275-0.152 0.398-0.249 0.276 0.784 0.103 1.655-0.451 2.275l-0.013 0.013c-0.695 0.753-1.803 0.956-2.72 0.499-0.090-0.047-0.176-0.101-0.258-0.161 0.393-0.551 0.447-1.274 0.141-1.877-0.086-0.17-0.256-0.282-0.446-0.293s-0.372 0.081-0.477 0.24c-0.105 0.159-0.116 0.362-0.030 0.533 0.175 0.352 0.066 0.78-0.257 1.005-0.19 0.126-0.424 0.166-0.645 0.11s-0.407-0.204-0.514-0.405c-0.085-0.17-0.255-0.282-0.445-0.294s-0.372 0.080-0.477 0.239c-0.105 0.159-0.117 0.362-0.032 0.533 0.313 0.631 0.957 1.030 1.662 1.028 0.229-0.002 0.456-0.046 0.669-0.132 0.191 0.167 0.4 0.31 0.625 0.427 0.76 0.394 1.644 0.476 2.463 0.228-0.527 0.72-1.316 1.203-2.196 1.347-0.274 0.045-0.468 0.292-0.446 0.568s0.252 0.49 0.53 0.491c0.028-0 0.057-0.002 0.085-0.006 0.325-0.056 0.642-0.149 0.946-0.276 0.164 0.291 0.298 0.597 0.398 0.916 0.018 0.056 0.028 0.114 0.028 0.172-0 0.23-0.138 0.439-0.35 0.529-0.245 0.095-0.524 0.020-0.689-0.185-0.413-0.485-0.954-0.844-1.561-1.037-1.153-0.386-1.597-0.731-1.786-1.107 0.277-0.035 0.55-0.092 0.818-0.171 0.182-0.056 0.321-0.205 0.363-0.391s-0.017-0.38-0.157-0.51-0.338-0.175-0.52-0.119c-0.299 0.092-0.608 0.149-0.921 0.169-0.602 0.047-1.206-0.044-1.767-0.267-0.211-0.082-0.45-0.023-0.598 0.149-0.777 0.892-2.106 1.044-3.063 0.349s-1.227-2.004-0.62-3.020c0.098-0.164 0.101-0.368 0.009-0.535s-0.268-0.272-0.459-0.275c-0.191-0.003-0.369 0.096-0.468 0.26-0.127 0.217-0.23 0.447-0.305 0.686-0.42-0.022-0.751-0.366-0.758-0.786v-0.013c-0-0.141-0.057-0.276-0.157-0.374s-0.236-0.154-0.376-0.152c-0.296 0.003-0.534 0.244-0.533 0.54 0.002 0.946 0.716 1.739 1.656 1.841 0.002 0.179 0.018 0.357 0.049 0.533-1.191 0.258-2.426-0.17-3.202-1.11s-0.963-2.233-0.486-3.354c0.119 0.121 0.253 0.227 0.397 0.316 0.252 0.148 0.576 0.065 0.726-0.185s0.072-0.575-0.176-0.729v0.002zM5.572 15.626c0.246-0.036 0.5-0.068 0.752-0.101 0.986 1.576 2.872 2.341 4.677 1.898 0.485 0.921 1.371 1.563 2.397 1.736s2.074-0.14 2.836-0.85c0.362 0.108 0.736 0.176 1.113 0.202 0.258 0.977 1.002 1.569 2.566 2.093 0.422 0.132 0.798 0.38 1.086 0.715 0.32 0.381 0.791 0.602 1.289 0.605 0.218-0 0.433-0.044 0.633-0.129 0.605-0.258 0.997-0.852 0.997-1.51 0-0.171-0.027-0.342-0.081-0.505-0.12-0.377-0.278-0.741-0.471-1.085 0.907-0.652 1.539-1.618 1.772-2.71 0.114-0.135 0.216-0.279 0.307-0.43 0.179 0.023 0.357 0.043 0.537 0.073l1.925 11.581c-3.763-1.257-7.833-1.257-11.597 0v-6.676c0-0.295-0.239-0.533-0.533-0.533s-0.533 0.239-0.533 0.533v6.678c-3.763-1.258-7.833-1.259-11.597-0.004l1.925-11.581zM1.192 29.404c-0.101-0.122-0.142-0.282-0.112-0.437l2.335-11.99h0.853l-1.674 10.058c-0.059 0.366 0.076 0.737 0.356 0.979s0.666 0.323 1.020 0.212c2.843-0.921 5.872-1.113 8.809-0.559l-0.159 1.933h-11.014c-0.161 0-0.313-0.072-0.415-0.196zM15.778 30.667c-1.285 0-2.022-0.38-2.13-0.549l0.183-2.213c0.586 0.146 1.16 0.338 1.716 0.576 0.072 0.035 0.151 0.053 0.23 0.053s0.159-0.018 0.231-0.053c0.556-0.238 1.129-0.432 1.716-0.579l0.183 2.217c-0.108 0.17-0.845 0.549-2.13 0.549zM30.364 29.404c-0.102 0.124-0.255 0.196-0.415 0.196h-11.013l-0.16-1.937c2.938-0.553 5.969-0.359 8.813 0.564 0.354 0.109 0.739 0.028 1.018-0.215s0.413-0.613 0.353-0.979l-1.672-10.056h0.853l2.336 11.989c0.030 0.156-0.012 0.316-0.114 0.438z"></path>
<path fill="#2dc071" style="fill: var(--color2, #2dc071)" d="M14.010 12.365c-0.218 0.197-0.235 0.535-0.038 0.753 0.452 0.499 1.050 0.844 1.709 0.986-0.298 0.421-0.782 0.67-1.298 0.669-0.295 0-0.533 0.239-0.533 0.533s0.239 0.533 0.533 0.533c1.104 0.004 2.095-0.678 2.485-1.71 1.326-0.22 2.376-1.241 2.633-2.56 0.040-0.189-0.026-0.384-0.171-0.511s-0.348-0.166-0.529-0.101-0.315 0.222-0.347 0.412c-0.105 0.55-0.422 1.037-0.883 1.354-0.887 0.598-2.077 0.462-2.807-0.32-0.197-0.218-0.535-0.235-0.753-0.038z"></path>
<path fill="#2dc071" style="fill: var(--color2, #2dc071)" d="M12.151 11.787c0.295 0 0.533-0.239 0.533-0.533 0-0.368 0.146-0.72 0.406-0.981s0.613-0.406 0.98-0.406c0.295 0 0.533-0.239 0.533-0.533s-0.239-0.533-0.533-0.533c-1.354 0.001-2.452 1.099-2.453 2.453 0 0.141 0.056 0.277 0.156 0.377s0.236 0.156 0.377 0.156z"></path>
<path fill="#2dc071" style="fill: var(--color2, #2dc071)" d="M16.311 1.333v-0.533c0-0.295-0.239-0.533-0.533-0.533s-0.533 0.239-0.533 0.533v0.533c0 0.295 0.239 0.533 0.533 0.533s0.533-0.239 0.533-0.533z"></path>
<path fill="#2dc071" style="fill: var(--color2, #2dc071)" d="M24.53 4.094l-0.533 0.533c-0.139 0.134-0.194 0.332-0.145 0.519s0.194 0.332 0.381 0.381c0.186 0.049 0.385-0.007 0.519-0.145l0.533-0.533c0.139-0.134 0.194-0.332 0.145-0.519s-0.194-0.332-0.381-0.381c-0.186-0.049-0.385 0.007-0.519 0.145z"></path>
<path fill="#2dc071" style="fill: var(--color2, #2dc071)" d="M7.182 5.538c0.216-0 0.41-0.13 0.493-0.329s0.037-0.429-0.116-0.581l-0.533-0.533c-0.134-0.139-0.332-0.194-0.519-0.145s-0.332 0.194-0.381 0.381c-0.049 0.186 0.007 0.385 0.145 0.519l0.533 0.533c0.1 0.1 0.236 0.156 0.377 0.156z"></path>
<path fill="#2dc071" style="fill: var(--color2, #2dc071)" d="M11.288 3.293c0.070-0 0.139-0.014 0.204-0.041 0.131-0.054 0.235-0.158 0.289-0.289s0.054-0.278-0-0.408l-0.613-1.478c-0.070-0.18-0.232-0.308-0.424-0.335s-0.382 0.053-0.499 0.207c-0.117 0.154-0.14 0.359-0.063 0.536l0.612 1.478c0.083 0.199 0.277 0.329 0.493 0.329z"></path>
<path fill="#2dc071" style="fill: var(--color2, #2dc071)" d="M21.084 0.789c-0.272-0.113-0.584 0.017-0.697 0.289l-0.613 1.478c-0.054 0.131-0.055 0.278-0 0.409s0.158 0.235 0.289 0.289c0.065 0.027 0.134 0.040 0.204 0.041 0.216 0 0.41-0.13 0.493-0.329l0.612-1.478c0.054-0.131 0.055-0.278 0-0.409s-0.158-0.235-0.289-0.289z"></path>
<path fill="#2dc071" style="fill: var(--color2, #2dc071)" d="M26.618 9.644c0.070-0 0.14-0.014 0.204-0.041l1.478-0.612c0.176-0.073 0.3-0.234 0.325-0.423s-0.053-0.377-0.204-0.493c-0.151-0.116-0.353-0.143-0.529-0.070l-1.478 0.612c-0.236 0.097-0.37 0.347-0.32 0.597s0.27 0.43 0.525 0.429z"></path>
<path fill="#2dc071" style="fill: var(--color2, #2dc071)" d="M4.733 9.603c0.272 0.113 0.584-0.016 0.697-0.289s-0.016-0.584-0.289-0.697l-1.478-0.612c-0.272-0.113-0.584 0.017-0.697 0.289s0.017 0.584 0.289 0.697l1.478 0.612z"></path>
</symbol>
<symbol id="icon-school" viewBox="0 0 32 32">
<path fill="#8d5cf6" style="fill: var(--color3, #8d5cf6)" d="M31.467 12.8h-9.067v-1.6c0-0.171-0.082-0.331-0.22-0.431l-5.647-4.107v-1.862h5.867c0.295 0 0.533-0.239 0.533-0.533v-3.2c0-0.295-0.239-0.533-0.533-0.533h-5.867c0-0.295-0.239-0.533-0.533-0.533s-0.533 0.239-0.533 0.533v6.129l-5.647 4.107c-0.138 0.1-0.22 0.261-0.22 0.431v1.6h-9.067c-0.295 0-0.533 0.239-0.533 0.533v18.133c0 0.295 0.239 0.533 0.533 0.533h30.933c0.295 0 0.533-0.239 0.533-0.533v-18.133c0-0.295-0.239-0.533-0.533-0.533zM16.533 1.6h5.333v2.133h-5.333v-2.133zM9.6 30.933h-8.533v-17.067h8.533v17.067zM18.133 30.933h-4.267v-5.333h4.267v5.333zM21.333 30.933h-2.133v-5.867c0-0.295-0.239-0.533-0.533-0.533h-5.333c-0.295 0-0.533 0.239-0.533 0.533v5.867h-2.133v-19.462l5.333-3.879 5.333 3.879v19.462zM30.933 30.933h-8.533v-17.067h8.533v17.067z"></path>
<path fill="#8d5cf6" style="fill: var(--color3, #8d5cf6)" d="M4.8 15.467h-2.133v1.067h2.133v-1.067z"></path>
<path fill="#8d5cf6" style="fill: var(--color3, #8d5cf6)" d="M8 15.467h-2.133v1.067h2.133v-1.067z"></path>
<path fill="#8d5cf6" style="fill: var(--color3, #8d5cf6)" d="M4.8 17.6h-2.133v1.067h2.133v-1.067z"></path>
<path fill="#8d5cf6" style="fill: var(--color3, #8d5cf6)" d="M8 17.6h-2.133v1.067h2.133v-1.067z"></path>
<path fill="#8d5cf6" style="fill: var(--color3, #8d5cf6)" d="M4.8 19.733h-2.133v1.067h2.133v-1.067z"></path>
<path fill="#8d5cf6" style="fill: var(--color3, #8d5cf6)" d="M8 19.733h-2.133v1.067h2.133v-1.067z"></path>
<path fill="#8d5cf6" style="fill: var(--color3, #8d5cf6)" d="M4.8 21.867h-2.133v1.067h2.133v-1.067z"></path>
<path fill="#8d5cf6" style="fill: var(--color3, #8d5cf6)" d="M8 21.867h-2.133v1.067h2.133v-1.067z"></path>
<path fill="#8d5cf6" style="fill: var(--color3, #8d5cf6)" d="M4.8 24h-2.133v1.067h2.133v-1.067z"></path>
<path fill="#8d5cf6" style="fill: var(--color3, #8d5cf6)" d="M8 24h-2.133v1.067h2.133v-1.067z"></path>
<path fill="#8d5cf6" style="fill: var(--color3, #8d5cf6)" d="M26.133 15.467h-2.133v1.067h2.133v-1.067z"></path>
<path fill="#8d5cf6" style="fill: var(--color3, #8d5cf6)" d="M29.333 15.467h-2.133v1.067h2.133v-1.067z"></path>
<path fill="#8d5cf6" style="fill: var(--color3, #8d5cf6)" d="M26.133 17.6h-2.133v1.067h2.133v-1.067z"></path>
<path fill="#8d5cf6" style="fill: var(--color3, #8d5cf6)" d="M29.333 17.6h-2.133v1.067h2.133v-1.067z"></path>
<path fill="#8d5cf6" style="fill: var(--color3, #8d5cf6)" d="M26.133 19.733h-2.133v1.067h2.133v-1.067z"></path>
<path fill="#8d5cf6" style="fill: var(--color3, #8d5cf6)" d="M29.333 19.733h-2.133v1.067h2.133v-1.067z"></path>
<path fill="#8d5cf6" style="fill: var(--color3, #8d5cf6)" d="M26.133 21.867h-2.133v1.067h2.133v-1.067z"></path>
<path fill="#8d5cf6" style="fill: var(--color3, #8d5cf6)" d="M29.333 21.867h-2.133v1.067h2.133v-1.067z"></path>
<path fill="#8d5cf6" style="fill: var(--color3, #8d5cf6)" d="M26.133 24h-2.133v1.067h2.133v-1.067z"></path>
<path fill="#8d5cf6" style="fill: var(--color3, #8d5cf6)" d="M29.333 24h-2.133v1.067h2.133v-1.067z"></path>
<path fill="#8d5cf6" style="fill: var(--color3, #8d5cf6)" d="M12.267 16c0.002 2.061 1.672 3.731 3.733 3.733 2.062 0 3.733-1.671 3.733-3.733s-1.671-3.733-3.733-3.733c-2.062 0-3.733 1.671-3.733 3.733zM18.667 16c0 1.473-1.194 2.667-2.667 2.667s-2.667-1.194-2.667-2.667c0.002-1.472 1.195-2.665 2.667-2.667 1.473 0 2.667 1.194 2.667 2.667z"></path>
<path fill="#8d5cf6" style="fill: var(--color3, #8d5cf6)" d="M15.467 15.467h-1.067v1.067h2.133v-2.667h-1.067v1.6z"></path>
</symbol>
<symbol id="icon-book" viewBox="0 0 32 32">
<path fill="#fff" style="fill: var(--color4, #fff)" d="M31.987 25.743v-2.816h-3.003v-1.877h-1.001v-1.564h1.001v-2.816h-7.486v0.939h6.548v0.939h-19.42v0.939h18.419v1.564h-20.43c-0.431 0-0.782-0.351-0.782-0.782s0.351-0.782 0.782-0.782h1.073v-0.939h-1.073c-0.949 0-1.721 0.772-1.721 1.721s0.772 1.721 1.721 1.721h21.431v0.939h-16.175v0.939h19.178v0.939h-26.499c-1.466 0-2.659 1.193-2.659 2.659s1.193 2.659 2.659 2.659h22.106v-0.939h-22.106c-0.949 0-1.721-0.772-1.721-1.721s0.772-1.721 1.721-1.721h25.498v1.564h-20.805v0.939h20.805v0.939h-2.454v0.939h3.455v0.939h-26.5c-1.984 0-3.598-1.614-3.598-3.598s1.614-3.598 3.598-3.598h6.382v-0.939h-4.317c-1.466 0-2.659-1.193-2.659-2.659s1.193-2.659 2.659-2.659h13.945v-0.939h-13.945c-1.984 0-3.598 1.614-3.598 3.598 0 1.060 0.461 2.014 1.193 2.673-2.343 0.175-4.197 2.135-4.197 4.522 0 2.501 2.035 4.537 4.537 4.537h27.438v-2.816h-1.001v-3.441h1.001z"></path>
<path fill="#fff" style="fill: var(--color4, #fff)" d="M7.365 27.307h0.939v0.939h-0.939v-0.939z"></path>
<path fill="#fff" style="fill: var(--color4, #fff)" d="M8.648 13.949l0.209 0.139c0.081 0.054 2.054 1.33 7.143 1.33s7.062-1.276 7.143-1.33l0.209-0.139v-7.901l2.816-0.939v4.431c-0.721 0.205-1.251 0.869-1.251 1.655v2.346h3.441v-2.346c0-0.786-0.53-1.45-1.251-1.655v-4.744l1.64-0.547-4.929-1.643-0.297 0.89 2.257 0.752-9.779 3.26-9.779-3.26 9.779-3.26 6.631 2.21 0.297-0.89-6.928-2.309-12.747 4.249 5.395 1.798v7.901zM27.419 11.195v1.408h-1.564v-1.408c0-0.431 0.351-0.782 0.782-0.782s0.782 0.351 0.782 0.782zM9.586 6.36l6.414 2.138 6.414-2.138v3.677h-1.158v0.939h1.158v0.939h-2.034v0.939h2.034v0.566c-0.605 0.295-2.551 1.061-6.414 1.061-3.866 0-5.812-0.768-6.414-1.061v-7.059z"></path>
<path fill="#fff" style="fill: var(--color4, #fff)" d="M5.488 27.307h0.939v0.939h-0.939v-0.939z"></path>
<path fill="#fff" style="fill: var(--color4, #fff)" d="M18.503 11.914h0.939v0.939h-0.939v-0.939z"></path>
</symbol>
</defs>
</svg>
